<svg xmlns="http://www.w3.org/2000/svg" viewBox="0 0 60 60"><defs><style>.cls-1,.cls-2{fill:#40b9eb}.cls-2{fill-rule:evenodd}</style></defs><title>ico-soc-gp</title><g id="Layer_2" data-name="Layer 2"><g id="Layer_1-2" data-name="Layer 1"><path class="cls-1" d="M30 2A28 28 0 1 1 2 30 28 28 0 0 1 30 2m0-2a30 30 0 1 0 30 30A30 30 0 0 0 30 0z"/><path class="cls-2" d="M25.86 27.91v4h6c-1 2.95-2.76 4.91-6.47 4.91a6.82 6.82 0 0 1 0-13.64 6.48 6.48 0 0 1 4.45 1.68c.94-.94.86-1.08 3.26-3.35a11.47 11.47 0 1 0-7.71 20c9.46 0 11.24-8.07 10.47-13.57zm20-4h-3v4h-4v3h4v4h3v-4h4v-3h-4v-4z"/></g></g></svg>