<svg xmlns="http://www.w3.org/2000/svg" viewBox="0 0 42 60">
  <defs>
    <style>
    .cls-1,
    .cls-2 {
      fill: none;
      stroke: #40b9eb;
      stroke-width: 2px;
      stroke-miterlimit: 10;
    }
    </style>
  </defs>
  <title>ico-map</title>
  <g id="Layer_2" data-name="Layer 2">
    <g id="Layer_1-2" data-name="Layer 1">
      <circle class="cls-1" cx="21" cy="22.14" r="8" />
      <path class="cls-2" d="M41,21.12c0-.11,0-.22,0-.33h0A20.15,20.15,0,0,0,21,1,20.15,20.15,0,0,0,1,20.78H1c0,.11,0,.22,0,.33s0,.16,0,.24a20.63,20.63,0,0,0,.56,4.7C4.78,42.27,21,59,21,59h0S37.22,42.27,40.44,26.06a20.63,20.63,0,0,0,.56-4.7C41,21.27,41,21.2,41,21.12Z" />
    </g>
  </g>
</svg>
