<svg xmlns="http://www.w3.org/2000/svg" viewBox="0 0 166 166"><defs><style>.cls-1{fill:none;stroke:#00b9ff;stroke-miterlimit:10;stroke-width:2px;}</style></defs><title>Asset 3</title><g id="Layer_2" data-name="Layer 2"><g id="Layer_1-2" data-name="Layer 1"><circle class="cls-1" cx="83" cy="83" r="82"/><path class="cls-1" d="M115.77,68H49.22A27.5,27.5,0,1,0,74,107H91.21a27.23,27.23,0,1,0,24.56-39Z"/><path class="cls-1" d="M98.8,52H87.86A4.86,4.86,0,0,0,83,56.86V67.8"/><path class="cls-1" d="M99,52h10.2a4.8,4.8,0,0,0,4.8-4.8V46"/><path class="cls-1" d="M99,40h10.2a4.8,4.8,0,0,1,4.8,4.8V46"/><circle class="cls-1" cx="116" cy="83.99" r="4"/><circle class="cls-1" cx="116" cy="105.99" r="4"/><circle class="cls-1" cx="105" cy="94.99" r="4"/><circle class="cls-1" cx="127" cy="94.99" r="4"/><line class="cls-1" x1="73" y1="97.04" x2="79.91" y2="97.04"/><line class="cls-1" x1="85.02" y1="97.04" x2="91.93" y2="97.04"/><path class="cls-1" d="M59,92H52V85a3,3,0,0,0-6,0v7H39a3,3,0,0,0,0,6h7v7a3,3,0,0,0,6,0V98h7a3,3,0,0,0,0-6Z"/><path class="cls-1" d="M84,27v8.2A4.8,4.8,0,0,0,88.8,40H99"/></g></g></svg>