<svg xmlns="http://www.w3.org/2000/svg" viewBox="0 0 60 60"><defs><style>.cls-1,.cls-2{fill:#40b9eb;}.cls-2{fill-rule:evenodd;}</style></defs><title>ico-soc-tw</title><g id="Layer_2" data-name="Layer 2"><g id="Layer_1-2" data-name="Layer 1"><path class="cls-1" d="M30,2A28,28,0,1,1,2,30,28,28,0,0,1,30,2m0-2A30,30,0,1,0,60,30,30,30,0,0,0,30,0Z"/><path class="cls-2" d="M41.33,21.69a6.1,6.1,0,0,0,2.56-3.39,11.32,11.32,0,0,1-3.69,1.49,5.66,5.66,0,0,0-4.25-1.94A6,6,0,0,0,30.13,24a6.43,6.43,0,0,0,.15,1.4,16.25,16.25,0,0,1-12-6.41,6.37,6.37,0,0,0-.79,3.09,6.23,6.23,0,0,0,2.59,5.11,5.61,5.61,0,0,1-2.64-.77v.08a6.07,6.07,0,0,0,4.67,6,5.58,5.58,0,0,1-2.63.1,5.87,5.87,0,0,0,5.43,4.26,11.3,11.3,0,0,1-7.23,2.63,11.05,11.05,0,0,1-1.39-.08,15.87,15.87,0,0,0,8.92,2.76c10.7,0,16.55-9.35,16.55-17.46,0-.27,0-.53,0-.79a12.2,12.2,0,0,0,2.9-3.18,11.2,11.2,0,0,1-3.34,1Zm0,0"/></g></g></svg>